<svg width="200" height="200" viewBox="0 0 200 200" fill="none" xmlns="http://www.w3.org/2000/svg">
<rect width="200" height="200" rx="20" fill="#032C1E"/>
<path d="M155 67.497C155 80.035 154.847 92.1702 154.337 102.392C153.42 121.778 132.225 133.762 111.03 128.676C99.21 125.806 89.9374 119.764 87.0333 107.326C84.1292 94.9397 90.8545 86.6816 99.8216 78.9775C106.089 73.6403 111.795 67.2957 116.431 60.498C122.851 51.2834 121.271 29.3798 113.425 18H128.404C136.709 34.2137 134.824 61.1526 122.749 74.6471C118.418 79.4309 113.884 84.0633 109.349 88.6452C100.688 97.5074 99.8216 105.463 106.904 111.606C114.852 118.656 129.627 118.152 135.181 109.592C138.492 104.456 140.785 97.8095 140.989 91.7674C141.753 71.2234 141.549 39.3497 141.549 18.1511H154.439C154.694 32.7534 155 50.4778 155 67.497ZM131.716 164.83C115.769 166.542 99.3631 165.635 84.2311 160.046C84.0273 159.996 83.8235 159.895 83.5688 159.794C72.7165 155.716 56.5655 146.451 47.3946 139.552C46.6304 138.998 45.8152 138.394 45 137.891V157.277C52.8462 164.276 68.6915 169.663 77.8624 172.534C89.4279 176.159 101.35 178.274 113.476 178.224C125.042 178.123 142.925 176.361 155 174.598V162.211C147.561 161.859 137.168 164.276 131.716 164.83ZM66.144 43.3276C64.3608 36.681 60.132 25.704 54.9352 18.1511H45.051V22.985C45.8152 24.4452 46.8851 25.8047 48.2608 27.1139C53.6614 32.0485 50.9611 50.7295 45.7133 55.5131C45.5095 55.7145 45.3057 55.9159 45.051 56.1677V70.3167C45.1019 70.3167 45.1019 70.2666 45.1528 70.2666C50.5535 66.7923 58.4506 61.0519 62.9342 56.6712C65.7364 53.7507 67.163 47.3055 66.144 43.3276Z" fill="url(#paint0_linear_1271_119)"/>
<path d="M155 136.129V149.724C154.491 149.875 153.981 150.076 153.37 150.228C129.474 156.874 98.6499 157.277 77.0983 143.631C53.1521 128.475 44.3888 99.8744 62.323 76.3093C66.8575 70.3675 72.6148 65.3322 78.0664 60.1458C89.9376 48.917 90.0395 30.5382 78.1682 19.4605C77.7097 19.0073 77.2002 18.5541 76.6907 18.101H91.3641C95.8475 25.6035 99.4141 35.7246 101.401 40.6591C105.171 50.0248 98.548 58.887 91.9246 65.0804C86.4221 70.2162 80.9195 75.4533 75.7227 80.8912C62.7815 94.5372 67.6727 121.476 85.4031 132.302C105.477 144.538 133.601 144.991 155 136.129Z" fill="url(#paint1_linear_1271_119)"/>
<path d="M75.2633 182H49.4319C47.9544 181.396 46.7826 180.943 46.1202 180.741C45.7126 180.59 45.356 180.439 45.0503 180.238V166.34C45.8655 166.038 46.7316 166.088 47.5468 166.542C51.5718 168.707 68.0794 177.972 75.2633 182Z" fill="url(#paint2_linear_1271_119)"/>
<defs>
<linearGradient id="paint0_linear_1271_119" x1="45.044" y1="98.184" x2="155.007" y2="98.184" gradientUnits="userSpaceOnUse">
<stop offset="0.0111732" stop-color="#1CB69A"/>
<stop offset="0.5" stop-color="#58DF78"/>
<stop offset="1" stop-color="#E5D645"/>
</linearGradient>
<linearGradient id="paint1_linear_1271_119" x1="138.538" y1="57.2107" x2="70.7374" y2="138.969" gradientUnits="userSpaceOnUse">
<stop offset="0.0111732" stop-color="#1CB69A"/>
<stop offset="0.5" stop-color="#58DF78"/>
<stop offset="1" stop-color="#E5D645"/>
</linearGradient>
<linearGradient id="paint2_linear_1271_119" x1="62.508" y1="171.397" x2="51.0695" y2="185.191" gradientUnits="userSpaceOnUse">
<stop offset="0.0111732" stop-color="#1CB69A"/>
<stop offset="0.5" stop-color="#58DF78"/>
<stop offset="1" stop-color="#E5D645"/>
</linearGradient>
</defs>
</svg>
