<svg width="48" height="48" viewBox="0 0 48 48" fill="none" xmlns="http://www.w3.org/2000/svg">
<circle cx="24" cy="24" r="24" fill="#032C1E"/>
<path d="M24.003 39L23.3377 38.6679C20.7195 37.2918 18.1812 35.7687 15.735 34.1058C10.8203 30.826 9.28428 15.3881 9.11907 13.6381L9 12.3348L24.003 9L39 12.3348L38.8869 13.6381C38.7276 15.3881 37.1916 30.826 32.2769 34.1058C29.8289 35.7714 27.2887 37.297 24.6683 38.6753L24.003 39ZM12.2224 14.6702C12.91 20.8022 14.7616 29.8758 17.3871 31.6273C20.5127 33.7125 22.8941 35.053 24.003 35.6488C25.1059 35.053 27.5007 33.7125 30.6189 31.6273C33.2444 29.8758 35.096 20.8037 35.7836 14.6702L24.003 12.0503L12.2224 14.6702Z" fill="#F3FFFF"/>
</svg>
