<svg width="48" height="48" viewBox="0 0 48 48" fill="none" xmlns="http://www.w3.org/2000/svg">
<circle cx="24" cy="24" r="24" fill="#032C1E"/>
<path d="M14 40.6591C14 41.1011 14.1756 41.525 14.4882 41.8376C14.8007 42.1501 15.2246 42.3257 15.6667 42.3257C16.1087 42.3257 16.5326 42.1501 16.8452 41.8376C17.1577 41.525 17.3333 41.1011 17.3333 40.6591C17.3333 40.6207 17.54 36.9491 24 34.1424C30.3533 36.9007 30.6549 40.4757 30.6666 40.6891C30.6706 41.1311 30.85 41.5534 31.1654 41.8632C31.4807 42.1729 31.9062 42.3447 32.3483 42.3407C32.7903 42.3367 33.2126 42.1573 33.5224 41.842C33.8321 41.5266 34.0039 41.1011 33.9999 40.6591C33.9999 40.4424 33.9066 35.9924 27.905 32.3974C33.4899 29.5591 33.9999 27.0608 33.9999 23.9925C33.9999 20.9241 33.4899 18.4258 27.905 15.5875C33.9066 11.9925 33.9999 7.54251 33.9999 7.32584C33.9999 6.88381 33.8243 6.45989 33.5118 6.14733C33.1992 5.83477 32.7753 5.65918 32.3333 5.65918C31.8912 5.65918 31.4673 5.83477 31.1548 6.14733C30.8422 6.45989 30.6666 6.88381 30.6666 7.32584C30.6666 7.36417 30.4599 11.0358 24 13.8425C17.5933 11.0608 17.3333 7.44917 17.3333 7.32584C17.3333 6.88381 17.1577 6.45989 16.8452 6.14733C16.5326 5.83477 16.1087 5.65918 15.6667 5.65918C15.2246 5.65918 14.8007 5.83477 14.4882 6.14733C14.1756 6.45989 14 6.88381 14 7.32584C14 7.54251 14.0933 11.9925 20.095 15.5875C14.51 18.4258 14 20.9241 14 23.9925C14 27.0608 14.51 29.5591 20.095 32.3974C14.0933 35.9924 14 40.4424 14 40.6591ZM17.3333 23.9925C17.3333 21.8125 17.3533 20.2158 24 17.4641C30.6466 20.2158 30.6666 21.8125 30.6666 23.9925C30.6666 26.1724 30.6466 27.7691 24 30.5208C17.3533 27.7691 17.3333 26.1724 17.3333 23.9925Z" fill="#F3FFFF"/>
</svg>
