<svg width="1440" height="802" viewBox="0 0 1440 802" fill="none" xmlns="http://www.w3.org/2000/svg">
<g opacity="0.15" clip-path="url(#clip0_138_201)">
<mask id="mask0_138_201" style="mask-type:luminance" maskUnits="userSpaceOnUse" x="0" y="0" width="1440" height="802">
<path d="M0 802H1440V6.10352e-05H0V802Z" fill="white"/>
</mask>
<g mask="url(#mask0_138_201)">
<path d="M-81.5118 261.195C-57.4523 290.723 -9.02224 304.565 31.6472 293.54C72.3147 282.512 101.785 247.548 100.502 211.845C99.8878 194.716 92.9816 178.141 91.3534 161.059C85.5781 100.415 155.654 45.319 228.464 46.4258C301.273 47.5342 365.815 97.5773 382.377 156.819C398.941 216.06 372.184 280.292 322.633 324.872C293.562 351.025 257.518 371.095 227.086 396.144C196.654 421.194 171.056 453.782 171.857 489.468C172.95 538.06 223.926 577.733 279.59 591.856C325.576 603.527 378.296 600.998 418.162 578.57C458.029 556.145 481.131 511.905 466.063 473.776C454.289 443.992 421.501 418.243 426.816 387.191C431.652 358.93 467.055 341.204 500.697 336.185C534.338 331.166 569.366 334.584 602.605 327.955C635.844 321.326 669.216 299.497 668.16 270.962C666.714 231.944 608.64 215.11 580.038 184.241C543.863 145.2 562.673 83.5183 609.191 53.0647C655.707 22.6128 720.603 18.6622 778.383 29.0288C873.544 46.0986 961.511 104.043 985.695 182.804C1009.88 261.565 955.234 355.946 860.912 376.008C810.136 386.807 756.079 376.571 704.388 383.733C652.7 390.894 598.481 429.108 613.058 471.151C621.588 495.754 650.027 511.004 670.043 530.409C704.983 564.284 710.753 622.17 669.73 650.895C627.427 680.514 564.624 666.104 510.061 659.136C448.212 651.238 382.433 655.771 327.513 680.811C272.592 705.854 230.569 753.58 228.72 805.827C225.934 884.59 314.868 949.563 408.044 961.827C501.216 974.088 595.083 946.045 680.148 911.999C726.812 893.323 773.151 872.202 809.201 841.192C845.249 810.182 870.123 767.687 865.536 724.629C858.211 655.845 779.812 600.386 783.888 531.414C786.72 483.428 836.043 440.387 893.305 435.932C950.565 431.477 995.249 478.853 1008.64 525.577C1016.66 553.558 1023.52 571.064 1034.56 598.316C1052.91 643.576 1120.2 667.701 1174.78 653.407C1229.35 639.113 1267.05 592.761 1271.15 545.103C1275.26 497.443 1249.35 450.135 1209.52 415.848C1176.04 387.032 1129.35 359.92 1129.92 319.765C1130.85 254.904 1255.24 223.02 1245.13 158.706C1240.5 129.298 1207.54 108.821 1174.66 97.6239C1141.78 86.4264 1105.62 80.5621 1076.87 63.1555C1013.57 24.8231 1011.86 -60.0878 1059.35 -111.969C1106.85 -163.852 1188.81 -186.305 1266.96 -188.47C1345.51 -190.647 1426.95 -174.017 1487.59 -132.236C1548.22 -90.4532 1584.16 -21.2197 1566.69 42.8007C1553.33 91.7725 1512.13 131.89 1469.3 167.141C1426.47 202.392 1379.8 235.834 1350.16 279.537C1320.52 323.239 1311.41 381.08 1345.75 422.309C1401.14 488.799 1541.59 486.182 1575.32 562.128C1593.4 602.844 1569 649.64 1531 679.271C1492.99 708.9 1443.57 725.596 1396.56 744.143C1349.56 762.689 1301.97 785.121 1273.76 821.597C1245.55 858.072 1243.7 912.161 1282.67 940.896C1279.43 934.692 1276.19 928.488 1272.95 922.282" stroke="url(#paint0_linear_138_201)" stroke-width="2.66667" stroke-miterlimit="10"/>
</g>
<mask id="mask1_138_201" style="mask-type:luminance" maskUnits="userSpaceOnUse" x="0" y="0" width="1440" height="802">
<path d="M0 802H1440V6.10352e-05H0V802Z" fill="white"/>
</mask>
<g mask="url(#mask1_138_201)">
<path d="M-53.8519 254.56C-35.0782 277.3 9.27767 275.129 33.5887 256.404C57.8997 237.681 66.2133 208.623 69.2738 181.119C72.3343 153.614 71.4914 125.308 82.4585 99.2461C99.4658 58.8269 144.453 28.8993 194.293 18.799C244.132 8.69857 297.733 16.9384 343.513 36.2489C369.548 47.2283 393.9 62.0766 410.368 82.1827C429.744 105.84 436.908 135.153 438.062 163.801C441.397 246.668 395.088 329.904 317.111 381.199C296.314 394.881 273.425 406.422 254.233 421.655C235.041 436.888 219.387 456.924 218.525 479.027C217.688 500.493 231.308 521.239 250.967 535.078C270.628 548.918 295.724 556.461 321.068 560.062C338.343 562.518 356.368 563.225 373.148 559.018C389.931 554.808 405.372 545.078 411.713 531.431C421.726 509.889 407.543 486.484 398.137 464.751C385.369 435.254 381.374 402.291 393.007 372.468C404.642 342.647 433.511 316.712 470.06 309.529C494.942 304.64 521.094 308.432 546.467 305.849C571.838 303.264 599.418 290.743 602.899 269.589C606.361 248.566 585.241 231.21 570.065 214.193C540.248 180.768 529.834 135.804 542.575 95.4975C555.314 55.1937 591.132 20.743 636.624 3.61392C712.959 -25.1298 901.119 -20.8518 983.04 89.2884C1064.96 199.43 1052.16 328.82 953.601 376.94C855.04 425.06 689.881 387.52 654.079 434.684C618.279 481.848 703.999 508.68 720 562.04C736 615.402 727.041 672.076 660.48 704.156C593.92 736.236 444.16 672.076 364.8 711.642C285.439 751.206 293.119 862.418 459.52 877.388C625.92 892.358 775.68 833.546 802.56 750.138C829.44 666.73 723.024 566.993 764.16 486.012C805.296 405.031 939.519 399.396 998.4 451.794C1057.28 504.19 1045.76 612.194 1137.92 623.956C1230.08 635.718 1265.92 510.579 1160.96 434.136C1056 357.692 1070.08 305.294 1130.24 256.104C1190.4 206.916 1219.84 145.964 1160.96 126.716C1102.08 107.468 1011.2 76.4564 1004.8 -35.8236C998.4 -148.104 1121.28 -216.54 1329.92 -209.056C1538.56 -201.57 1633.28 -71.1116 1616.64 35.8223C1600 142.756 1396.01 231.053 1370.88 326.68C1345.75 422.309 1516.8 436.822 1592.32 521.3C1667.84 605.778 1598.72 696.67 1496.32 743.722C1393.92 790.772 1242.88 829.268 1319.68 947.964" stroke="url(#paint1_linear_138_201)" stroke-width="2.66667" stroke-miterlimit="10"/>
</g>
<mask id="mask2_138_201" style="mask-type:luminance" maskUnits="userSpaceOnUse" x="0" y="0" width="1440" height="802">
<path d="M0 802H1440V6.10352e-05H0V802Z" fill="white"/>
</mask>
<g mask="url(#mask2_138_201)">
<path d="M-57.6816 331.198C-20.6871 348.63 26.424 350.136 64.9027 335.113C103.381 320.092 132.224 288.934 139.95 254.044C144.857 231.881 141.666 209.114 141.188 186.578C140.712 164.043 143.423 140.343 158.395 121.592C181.614 92.5193 231.797 83.1584 270.227 96.9672C308.656 110.778 334.236 144.059 339.61 178.718C344.988 213.378 332.103 248.81 310.098 278.534C288.091 308.256 257.44 332.848 225.098 355.014C196.517 374.6 165.822 393.024 144.84 418.451C118.722 450.101 110.201 491.463 122.155 528.586C134.107 565.707 166.315 597.919 207.914 614.352C253.266 632.269 299.884 634.197 349.587 628.493C399.288 622.786 447.645 602.739 478.167 569.477C508.69 536.213 518.996 489.253 498.792 450.891C489.424 433.103 473.638 415.265 478.743 396.306C482.629 381.868 498.27 371.357 514.999 366.495C531.73 361.635 549.768 361.318 567.422 360.089C606.615 357.359 646.991 349.188 676.805 327.759C706.618 306.331 722.579 268.961 705.689 239.289C685.091 203.106 627.063 191.512 603.138 156.785C578.658 121.252 602.814 77.7273 645.351 62.8085C697.848 44.3978 759.459 44.4667 811.623 63.6922C870.456 85.3751 915.86 130.945 930.713 183.213C942.521 224.774 934.987 270.478 907.26 306.369C879.534 342.261 831.234 367.211 780.156 369.166C737.415 370.804 693.539 357.247 652.567 367.546C628.115 373.693 606.944 388.445 595.318 407.439C583.694 426.434 581.774 449.411 590.128 469.572C598.467 489.687 615.968 506.04 632.307 522.375C648.646 538.712 664.72 556.504 669.178 577.463C673.635 598.426 662.618 623.182 638.622 630.35C596.289 642.994 558.304 644.404 513.372 643.142C468.441 641.881 423.052 638.011 378.815 644.706C317.406 654.001 260.958 684.37 225.422 727.23C189.887 770.091 175.702 824.915 186.876 876.21" stroke="url(#paint2_linear_138_201)" stroke-width="2.66667" stroke-miterlimit="10"/>
</g>
<mask id="mask3_138_201" style="mask-type:luminance" maskUnits="userSpaceOnUse" x="0" y="0" width="1440" height="802">
<path d="M0 802H1440V6.10352e-05H0V802Z" fill="white"/>
</mask>
<g mask="url(#mask3_138_201)">
<path d="M826.913 852.98C886.761 819.08 916.419 751.957 897.29 693.7C888.381 666.562 870.354 642.274 854.678 617.364C839.003 592.457 825.234 565.505 826.07 537.372C826.901 509.24 845.903 479.803 877.96 471.161C909.668 462.615 945.079 476.635 966.506 497.951C987.933 519.266 998.388 546.587 1008.35 573.15C1018.31 599.71 1028.77 627.033 1050.19 648.35C1085.04 683.025 1146.7 695.546 1198.14 681.299C1249.59 667.053 1289.12 628.335 1302.08 584.373C1315.04 540.41 1302.61 492.436 1272.7 454.68C1254.4 431.568 1230.12 412.185 1210.51 389.835C1190.9 367.483 1175.67 340.382 1179.73 312.878C1184.53 280.364 1214.42 255.101 1240.85 230.901C1267.29 206.701 1293.31 176.78 1287.67 144.36C1282.07 112.197 1246.78 89.3801 1210.97 76.6796C1175.16 63.9807 1135.84 57.5775 1103.08 40.0554C1070.31 22.5334 1045.08 -11.6287 1058.77 -42.0501" stroke="url(#paint3_linear_138_201)" stroke-width="2.66667" stroke-miterlimit="10"/>
</g>
<mask id="mask4_138_201" style="mask-type:luminance" maskUnits="userSpaceOnUse" x="0" y="0" width="1440" height="802">
<path d="M0 802H1440V0H0V802Z" fill="white"/>
</mask>
<g mask="url(#mask4_138_201)">
<path d="M1511.02 65.0003C1478.09 118.353 1420.15 157.152 1370.88 200.845C1321.6 244.538 1277.98 300.405 1285.81 360.077C1291.63 404.469 1325.58 443.289 1366.28 472.245C1384.39 485.131 1404.45 495.241 1423.53 506.958C1441.05 517.72 1460.32 522.37 1481.01 528.457C1527.87 542.243 1581.72 572.082 1550.06 619.644C1535.72 641.178 1509.19 654.862 1482.95 666.112C1440.01 684.524 1394.8 699.015 1351.77 717.278C1308.74 735.541 1267.27 758.087 1236.89 789.416C1206.51 820.747 1188.25 861.961 1196.08 901.746" stroke="url(#paint4_linear_138_201)" stroke-width="2.66667" stroke-miterlimit="10"/>
</g>
<mask id="mask5_138_201" style="mask-type:luminance" maskUnits="userSpaceOnUse" x="0" y="0" width="1440" height="802">
<path d="M0 802H1440V6.10352e-05H0V802Z" fill="white"/>
</mask>
<g mask="url(#mask5_138_201)">
<path d="M-41.7805 366.187C2.60989 376.159 51.8732 369.868 90.6688 349.272C129.466 328.677 157.206 294.09 165.251 256.281C170.692 230.716 167.517 204.143 174.717 178.884C181.917 153.626 204.381 128.195 235.433 127.09C256.732 126.329 276.876 137.729 287.924 152.962C298.971 168.194 302.042 186.645 301.245 204.443C299.738 238.114 284.886 271.275 259.569 297.503C228.671 329.516 184.1 350.235 149.899 379.813C99.6851 423.241 74.3929 485.952 82.912 545.915C88.3782 584.377 108.832 623.64 150.761 643.417C168.792 651.922 186.028 652.47 205.798 655.085C214.004 656.169 224.744 657.691 229.118 664.482C239.044 679.897 217.156 698.635 207.768 710.055C193.575 727.319 183.516 748.288 175.544 768.024C158.925 809.178 153.153 853.427 159.376 896.57" stroke="url(#paint5_linear_138_201)" stroke-width="2.66667" stroke-miterlimit="10"/>
</g>
<mask id="mask6_138_201" style="mask-type:luminance" maskUnits="userSpaceOnUse" x="0" y="0" width="1440" height="802">
<path d="M0 802H1440V6.10352e-05H0V802Z" fill="white"/>
</mask>
<g mask="url(#mask6_138_201)">
<path d="M216.981 174.217C211.982 185.211 212.558 197.32 211.83 209.064C209.774 242.217 196.524 274.835 174.002 302.186C169.248 307.96 164.037 315.798 169.202 321.322C174.885 327.401 186.546 323.784 194.003 319.233C223.283 301.365 245.392 275.438 256.042 246.482C264.413 223.723 266.425 197.78 259.542 174.535C252.561 150.953 227.465 151.165 216.981 174.217Z" stroke="url(#paint6_linear_138_201)" stroke-width="2.66667" stroke-miterlimit="10"/>
</g>
<mask id="mask7_138_201" style="mask-type:luminance" maskUnits="userSpaceOnUse" x="0" y="0" width="1440" height="802">
<path d="M0 802H1440V6.10352e-05H0V802Z" fill="white"/>
</mask>
<g mask="url(#mask7_138_201)">
<path d="M-53.5499 390.574C-26.3128 402.562 7.31791 400.471 35.9643 391.05C64.6107 381.63 89.3422 365.63 113.676 349.877C121.224 344.992 131.233 339.888 139.614 343.708C146.572 346.879 148.232 355.044 145.46 361.248C142.689 367.452 136.682 372.181 131.014 376.81C96.5672 404.952 67.5733 438.429 51.4088 476.346C35.2405 514.262 32.5697 556.848 48.9569 594.697C65.3441 632.547 101.907 664.872 147.939 676.75C159.685 679.782 173.292 682.338 179.363 691.269C187.683 703.508 176.337 718.116 167.01 729.836C125.004 782.601 118.34 853.71 150.005 911.295" stroke="url(#paint7_linear_138_201)" stroke-width="2.66667" stroke-miterlimit="10"/>
</g>
<mask id="mask8_138_201" style="mask-type:luminance" maskUnits="userSpaceOnUse" x="0" y="0" width="1440" height="802">
<path d="M0 802H1440V6.10352e-05H0V802Z" fill="white"/>
</mask>
<g mask="url(#mask8_138_201)">
<path d="M-72.5747 433.829C-65.3037 443.83 -48.9011 446.892 -35.2979 444.102C-10.791 439.079 5.23905 421.067 26.9869 411.726C33.5648 408.899 41.8477 407.448 48.1683 410.657C53.9091 413.572 56.4205 419.664 56.0461 425.268C55.6717 430.871 52.9146 436.145 50.2016 441.279C8.41665 520.31 -20.3833 637.744 90.512 688.691C100.227 693.154 110.975 696.728 118.237 703.727C129.242 714.331 129.377 730.299 124.34 743.689C119.302 757.078 109.916 769.004 103.315 781.911C87.1712 813.484 88.8493 851.053 107.765 881.534" stroke="url(#paint8_linear_138_201)" stroke-width="2.66667" stroke-miterlimit="10"/>
</g>
<mask id="mask9_138_201" style="mask-type:luminance" maskUnits="userSpaceOnUse" x="0" y="0" width="1440" height="802">
<path d="M0 802H1440V6.10352e-05H0V802Z" fill="white"/>
</mask>
<g mask="url(#mask9_138_201)">
<path d="M-27.2775 472.925C-21.1143 465.742 -13.5783 459.385 -5.04195 454.164C-2.45955 452.583 0.462693 451.043 3.66333 451.166C8.37885 451.344 11.9193 455.231 12.5472 459.138C13.1769 463.049 11.6237 466.947 10.0915 470.679C0.0326126 495.188 -10.0263 519.696 -20.0851 544.205" stroke="url(#paint9_linear_138_201)" stroke-width="2.66667" stroke-miterlimit="10"/>
</g>
<mask id="mask10_138_201" style="mask-type:luminance" maskUnits="userSpaceOnUse" x="0" y="0" width="1440" height="802">
<path d="M0 802H1440V6.10352e-05H0V802Z" fill="white"/>
</mask>
<g mask="url(#mask10_138_201)">
<path d="M-26.6813 591.848C-24.6922 632.857 0.671046 672.648 40.2902 696.916C56.7408 706.993 76.991 716.211 81.9773 732.737C85.8499 745.565 79.0416 758.736 73.1184 771.005C55.343 807.818 44.4547 849.537 60.3062 886.958" stroke="url(#paint10_linear_138_201)" stroke-width="2.66667" stroke-miterlimit="10"/>
</g>
<mask id="mask11_138_201" style="mask-type:luminance" maskUnits="userSpaceOnUse" x="0" y="0" width="1440" height="802">
<path d="M0 802H1440V6.10352e-05H0V802Z" fill="white"/>
</mask>
<g mask="url(#mask11_138_201)">
<path d="M-37.7278 683.833C-36.618 699.606 -18.8676 710.532 -2.3153 718.173C14.2351 725.817 32.9397 734.021 38.8457 749.03C44.0316 762.208 37.5516 776.326 32.7708 789.611C20.3042 824.252 19.3807 861.738 30.1327 896.779" stroke="url(#paint11_linear_138_201)" stroke-width="2.66667" stroke-miterlimit="10"/>
</g>
<mask id="mask12_138_201" style="mask-type:luminance" maskUnits="userSpaceOnUse" x="0" y="0" width="1440" height="802">
<path d="M0 802H1440V6.10352e-05H0V802Z" fill="white"/>
</mask>
<g mask="url(#mask12_138_201)">
<path d="M-32.5677 740.706C-17.6993 745.286 -1.36967 750.962 5.15449 763.025C10.1388 772.24 8.04985 782.916 5.86681 792.862L-13.1009 879.281" stroke="url(#paint12_linear_138_201)" stroke-width="2.66667" stroke-miterlimit="10"/>
</g>
<mask id="mask13_138_201" style="mask-type:luminance" maskUnits="userSpaceOnUse" x="0" y="0" width="1440" height="802">
<path d="M0 802H1440V6.10352e-05H0V802Z" fill="white"/>
</mask>
<g mask="url(#mask13_138_201)">
<path d="M-71.9447 230.033C-40.0285 245.632 6.3241 234.319 23.1702 206.822C36.1763 185.594 32.0905 160.299 33.3961 136.478C36.6582 76.9761 79.0019 19.3845 142.55 -7.62525C180.67 -23.8256 224.236 -29.0338 267.001 -29.483C305.834 -29.892 346.64 -26.0055 378.558 -7.5226C403.791 7.08824 421.084 29.5346 433.703 52.9177C466.794 114.237 471.037 186.048 445.334 249.793C442.512 256.793 439.296 264.046 440.503 271.362C441.711 278.678 449.176 285.892 457.958 285.034C466.567 284.194 471.682 276.644 479.222 273.073C500.108 263.183 530.175 286.25 548.498 273.29C556.268 267.794 557.368 257.813 554.2 249.729C551.03 241.646 544.464 234.871 538.661 227.88C499.718 180.955 493.478 117.392 518.394 64.2227C543.31 11.0533 597.402 -31.1527 660.95 -52.1747" stroke="url(#paint13_linear_138_201)" stroke-width="2.66667" stroke-miterlimit="10"/>
</g>
<mask id="mask14_138_201" style="mask-type:luminance" maskUnits="userSpaceOnUse" x="0" y="0" width="1440" height="802">
<path d="M0 802H1440V0H0V802Z" fill="white"/>
</mask>
<g mask="url(#mask14_138_201)">
<path d="M117.151 -17.4858C73.8337 -6.05092 37.8856 23.3135 23.2264 59.2335C15.8766 77.2384 13.6878 96.3821 8.92048 114.984C4.15312 133.585 -3.76497 152.448 -20.0427 165.752C-36.3205 179.054 -62.7301 185.17 -82.5541 175.812" stroke="url(#paint14_linear_138_201)" stroke-width="2.66667" stroke-miterlimit="10"/>
</g>
<mask id="mask15_138_201" style="mask-type:luminance" maskUnits="userSpaceOnUse" x="0" y="0" width="1440" height="802">
<path d="M0 802H1440V6.10352e-05H0V802Z" fill="white"/>
</mask>
<g mask="url(#mask15_138_201)">
<path d="M-10.5554 101.078C-9.69142 48.2773 21.9387 -3.57837 72.5671 -35.1916" stroke="url(#paint15_linear_138_201)" stroke-width="2.66667" stroke-miterlimit="10"/>
</g>
<mask id="mask16_138_201" style="mask-type:luminance" maskUnits="userSpaceOnUse" x="0" y="0" width="1440" height="802">
<path d="M0 802H1440V6.10352e-05H0V802Z" fill="white"/>
</mask>
<g mask="url(#mask16_138_201)">
<path d="M398.983 -44.2415C421.967 -38.2763 439.441 -21.8994 449.423 -3.6042C459.404 14.6926 462.881 34.9319 465.774 54.8921C466.846 62.2881 470.599 71.8127 479.512 71.5544C487.87 71.3122 491.233 62.6185 492.737 55.7438C504.545 1.74835 539.675 -48.4729 590.188 -83.5716" stroke="url(#paint16_linear_138_201)" stroke-width="2.66667" stroke-miterlimit="10"/>
</g>
<mask id="mask17_138_201" style="mask-type:luminance" maskUnits="userSpaceOnUse" x="0" y="0" width="1440" height="802">
<path d="M0 802H1440V6.10352e-05H0V802Z" fill="white"/>
</mask>
<g mask="url(#mask17_138_201)">
<path d="M489.991 195.986C488.125 193.58 483.497 192.506 481.261 194.679C480.164 195.744 479.944 197.233 479.767 198.628C478.774 206.547 478.937 215.385 476.695 223.115C474.55 230.508 469.082 234.729 466.488 241.949C464.946 246.24 465.768 251.443 469.888 254.309C476.09 258.623 494.862 249.879 504.491 251.931C508.753 252.839 512.918 254.356 517.318 254.356C521.717 254.356 526.588 252.2 527.243 248.565C528.101 243.811 521.915 240.589 517.051 238.018C507.935 233.196 500.67 226.045 496.244 217.841C492.779 211.417 494.278 201.515 489.991 195.986Z" stroke="url(#paint17_linear_138_201)" stroke-width="2.66667" stroke-miterlimit="10"/>
</g>
<mask id="mask18_138_201" style="mask-type:luminance" maskUnits="userSpaceOnUse" x="0" y="0" width="1440" height="802">
<path d="M0 802H1440V6.10352e-05H0V802Z" fill="white"/>
</mask>
<g mask="url(#mask18_138_201)">
<path d="M266.431 465.791C262.078 476.609 261.516 488.769 266.836 499.28C274.771 514.962 294.232 524.523 313.801 529.278C322.927 531.496 332.554 532.916 341.931 531.631C351.31 530.348 360.449 526.01 364.929 519.009C372.392 507.338 365.217 493.287 360.403 480.681C353.175 461.754 364.274 419.481 333.846 414.181C304.549 409.08 274.261 446.336 266.431 465.791Z" stroke="url(#paint18_linear_138_201)" stroke-width="2.66667" stroke-miterlimit="10"/>
</g>
<mask id="mask19_138_201" style="mask-type:luminance" maskUnits="userSpaceOnUse" x="0" y="0" width="1440" height="802">
<path d="M0 802H1440V6.10352e-05H0V802Z" fill="white"/>
</mask>
<g mask="url(#mask19_138_201)">
<path d="M297.626 474.485C295.802 487.095 303.82 501.382 318.445 504.861C323.631 506.096 330.101 505.54 333.112 501.804C335.393 498.978 335.007 495.26 334.533 491.874C332.513 477.443 330.493 463.013 328.473 448.582C328.204 446.665 327.891 444.65 326.509 443.106C316.947 432.423 298.448 468.805 297.626 474.485Z" stroke="url(#paint19_linear_138_201)" stroke-width="2.66667" stroke-miterlimit="10"/>
</g>
<mask id="mask20_138_201" style="mask-type:luminance" maskUnits="userSpaceOnUse" x="0" y="0" width="1440" height="802">
<path d="M0 802H1440V6.10352e-05H0V802Z" fill="white"/>
</mask>
<g mask="url(#mask20_138_201)">
<path d="M522.741 446.81C534.124 472.079 541.004 499.426 536.261 526.132C531.523 552.84 513.813 578.819 485.404 591.692C476.787 595.597 465.715 600.436 466.63 608.589C467.546 616.742 479.658 619.83 489.367 620.953C519.845 624.478 551.767 627.888 580.677 619.084C609.584 610.281 633.803 584.976 626.488 560.007C620.998 541.272 600.595 528.796 585.912 513.911C556.279 483.865 549.82 439.191 570.038 404.113C573.139 398.734 576.911 393.088 575.863 387.186C571.893 364.823 534.518 377.514 522.777 386.756C502.314 402.865 514.438 428.38 522.741 446.81Z" stroke="url(#paint20_linear_138_201)" stroke-width="2.66667" stroke-miterlimit="10"/>
</g>
<mask id="mask21_138_201" style="mask-type:luminance" maskUnits="userSpaceOnUse" x="0" y="0" width="1440" height="802">
<path d="M0 802H1440V6.10352e-05H0V802Z" fill="white"/>
</mask>
<g mask="url(#mask21_138_201)">
<path d="M559.65 541.958C557.972 544.842 557.72 548.133 557.166 551.306C555.013 563.631 547.771 575.294 536.948 583.861C532.565 587.328 527.127 591.297 528.003 596.287C528.602 599.694 532.259 602.303 536.234 603.214C540.21 604.126 544.446 603.64 548.47 602.894C560.476 600.671 572.078 596.043 580.517 588.572C588.957 581.099 593.918 570.597 592.236 560.421C590.817 551.85 568.76 526.291 559.65 541.958Z" stroke="url(#paint21_linear_138_201)" stroke-width="2.66667" stroke-miterlimit="10"/>
</g>
<mask id="mask22_138_201" style="mask-type:luminance" maskUnits="userSpaceOnUse" x="0" y="0" width="1440" height="802">
<path d="M0 802H1440V0H0V802Z" fill="white"/>
</mask>
<g mask="url(#mask22_138_201)">
<path d="M857.843 140.125C837.562 112.74 805.302 91.9668 768.937 81.5376C732.684 71.1388 671.215 68.2789 650.221 101.892C615.723 157.129 726.522 187.357 746.984 228.961C761.77 259.025 743.553 293.843 717.546 318.018C710.316 324.739 701.829 333.027 705.108 341.639C708.866 351.502 724.675 353.175 736.965 351.866C792.119 345.997 842.625 315.473 866.559 273.549C890.492 231.624 887.094 179.625 857.843 140.125Z" stroke="url(#paint22_linear_138_201)" stroke-width="2.66667" stroke-miterlimit="10"/>
</g>
<mask id="mask23_138_201" style="mask-type:luminance" maskUnits="userSpaceOnUse" x="0" y="0" width="1440" height="802">
<path d="M0 802H1440V0H0V802Z" fill="white"/>
</mask>
<g mask="url(#mask23_138_201)">
<path d="M689.234 135.52C696.325 166.713 771.293 200.16 782.727 224.871C795.136 251.691 779.568 282.068 758.375 304.724C755.09 308.236 751.461 312.217 752.158 316.636C752.999 321.969 760.232 325.286 766.647 324.806C773.061 324.327 778.662 321.088 783.671 317.709C836.287 282.222 856.867 217.157 832.105 164.588C821.879 142.882 804.394 123.237 780.845 110.705C760.349 99.7973 727.429 94.7159 706.314 107.375C691.398 116.317 687.026 125.809 689.234 135.52Z" stroke="url(#paint23_linear_138_201)" stroke-width="2.66667" stroke-miterlimit="10"/>
</g>
<mask id="mask24_138_201" style="mask-type:luminance" maskUnits="userSpaceOnUse" x="0" y="0" width="1440" height="802">
<path d="M0 802H1440V0H0V802Z" fill="white"/>
</mask>
<g mask="url(#mask24_138_201)">
<path d="M727.117 143.424C728.74 149.239 732.785 154.376 737.27 159.025C745.171 167.211 754.604 174.258 763.993 181.264C775.557 189.897 787.121 198.529 798.685 207.162C800.972 208.867 804.031 210.693 806.826 209.644C809.639 208.588 810.025 205.425 809.877 202.851C808.548 179.312 797.059 156.473 778.543 138.772C771.133 131.689 759.406 119.792 746.928 120.03C732.808 120.299 724.143 132.764 727.117 143.424Z" stroke="url(#paint24_linear_138_201)" stroke-width="2.66667" stroke-miterlimit="10"/>
</g>
<mask id="mask25_138_201" style="mask-type:luminance" maskUnits="userSpaceOnUse" x="0" y="0" width="1440" height="802">
<path d="M0 802H1440V6.10352e-05H0V802Z" fill="white"/>
</mask>
<g mask="url(#mask25_138_201)">
<path d="M664.389 448.742C663.354 455.843 666.755 462.864 670.819 469.16C680.398 483.998 694.134 496.954 710.609 506.689C714.874 509.208 719.935 511.618 725.038 510.689C731.313 509.545 734.84 503.766 735.452 498.425C736.063 493.083 734.669 487.681 735.335 482.343C736.898 469.885 748.981 460.49 756.866 449.836C760.334 445.153 763.114 439.545 761.357 434.237C758.669 426.115 747.038 422.769 736.973 422.198C717.975 421.122 667.25 429.081 664.389 448.742Z" stroke="url(#paint25_linear_138_201)" stroke-width="2.66667" stroke-miterlimit="10"/>
</g>
<mask id="mask26_138_201" style="mask-type:luminance" maskUnits="userSpaceOnUse" x="0" y="0" width="1440" height="802">
<path d="M0 802H1440V6.10352e-05H0V802Z" fill="white"/>
</mask>
<g mask="url(#mask26_138_201)">
<path d="M692.372 456.17C690.926 465.292 696.548 474.291 704.001 481.068C707.575 484.317 713.719 487.294 717.68 484.377C718.958 483.434 719.638 482.064 720.277 480.744C723.088 474.94 725.899 469.137 728.71 463.335C731.281 458.029 733.882 452.17 731.747 446.731C725.438 430.662 694.38 443.5 692.372 456.17Z" stroke="url(#paint26_linear_138_201)" stroke-width="2.66667" stroke-miterlimit="10"/>
</g>
<mask id="mask27_138_201" style="mask-type:luminance" maskUnits="userSpaceOnUse" x="0" y="0" width="1440" height="802">
<path d="M0 802H1440V6.10352e-05H0V802Z" fill="white"/>
</mask>
<g mask="url(#mask27_138_201)">
<path d="M371.102 836.458C364.084 822.027 356.986 807.31 355.953 791.913C354.92 776.518 360.901 760.05 376.165 750.124C391.089 740.417 412.034 738.516 431.524 739.135C491.037 741.026 549.376 762.321 608.183 755.008C656.587 748.988 699.81 722.317 718.123 687.17C724.812 674.333 731.705 658.143 749.374 655.907C760.428 654.505 771.518 659.968 777.364 667.351C783.211 674.736 784.735 683.669 785.108 692.321C787.615 750.506 739.141 807.99 669.253 829.71" stroke="url(#paint27_linear_138_201)" stroke-width="2.772" stroke-miterlimit="10"/>
</g>
<mask id="mask28_138_201" style="mask-type:luminance" maskUnits="userSpaceOnUse" x="0" y="0" width="1440" height="802">
<path d="M0 802H1440V6.10352e-05H0V802Z" fill="white"/>
</mask>
<g mask="url(#mask28_138_201)">
<path d="M413.433 820.988C396.139 812.586 397.618 789.295 412.108 777.775C426.6 766.251 448.44 764.105 468.408 765.14C528.429 768.247 588.452 794.238 646.216 780.264C677.185 772.772 703.787 753.541 717.11 729.013C721.595 720.757 727.301 710.325 738.153 710.468C746.658 710.578 752.841 718.167 752.808 725.274C752.775 732.381 748.256 738.884 743.54 744.8C717.365 777.627 680.507 804.446 637.99 821.601" stroke="url(#paint28_linear_138_201)" stroke-width="2.772" stroke-miterlimit="10"/>
</g>
<mask id="mask29_138_201" style="mask-type:luminance" maskUnits="userSpaceOnUse" x="0" y="0" width="1440" height="802">
<path d="M0 802H1440V6.10352e-05H0V802Z" fill="white"/>
</mask>
<g mask="url(#mask29_138_201)">
<path d="M434.878 818.798C430.024 813.088 432.678 804.638 438.749 799.808C444.82 794.979 453.347 793.02 461.605 791.821C509.685 784.832 561.466 799.183 595.012 828.793" stroke="url(#paint29_linear_138_201)" stroke-width="2.772" stroke-miterlimit="10"/>
</g>
<mask id="mask30_138_201" style="mask-type:luminance" maskUnits="userSpaceOnUse" x="0" y="0" width="1440" height="802">
<path d="M0 802H1440V6.10352e-05H0V802Z" fill="white"/>
</mask>
<g mask="url(#mask30_138_201)">
<path d="M887.76 839.4C940.852 796.181 958.328 725.208 929.963 667.993C913.96 635.706 884.627 606.738 882.388 571.843C881.422 556.788 887.213 539.947 902.891 532.479C918.296 525.142 938.68 529.444 952.207 539.023C965.735 548.602 973.797 562.405 980.813 576.008C996.67 606.754 1007.5 647.219 1035.91 671.687C1063.09 695.091 1101.99 709.456 1140.81 711.485C1216.51 715.441 1281.56 672.157 1316.12 618.586C1340.89 580.2 1333.18 546.437 1320.05 506.616C1318.96 503.286 1317.86 499.748 1319.01 496.431C1321.14 490.318 1330.35 487.613 1337.76 489.104C1345.16 490.594 1351.11 495.066 1356.71 499.38C1381.53 518.482 1403.96 543.11 1436.47 552.885C1450.61 557.134 1465.77 558.563 1479.96 562.695C1494.14 566.827 1508.07 574.573 1512.86 586.468C1531.45 632.586 1410.42 656.56 1376.47 667.764C1321.06 686.052 1262.24 714.281 1224.02 753.019C1185.6 791.969 1158.9 839.09 1148.29 888.828" stroke="url(#paint30_linear_138_201)" stroke-width="2.772" stroke-miterlimit="10"/>
</g>
<mask id="mask31_138_201" style="mask-type:luminance" maskUnits="userSpaceOnUse" x="0" y="0" width="1440" height="802">
<path d="M0 802H1440V6.10352e-05H0V802Z" fill="white"/>
</mask>
<g mask="url(#mask31_138_201)">
<path d="M920.966 839.706C948.708 811.298 965.351 775.445 967.787 738.837C970.222 702.229 958.439 665.055 934.633 634.253C927.158 624.58 918.272 614.975 916.562 603.548C914.849 592.123 924.244 578.571 938.014 579.101C946.222 579.419 953.007 584.465 958.285 589.726C989.581 620.931 992.396 666.489 1021.3 699.263C1050.79 732.705 1107.43 747.356 1154.38 733.687C1162.03 731.461 1169.55 728.541 1177.62 727.953C1185.69 727.364 1194.75 729.733 1198.63 735.677C1204.6 744.809 1195.67 755.487 1187.62 763.427C1141.62 808.818 1107.73 862.73 1089.12 920.136" stroke="url(#paint31_linear_138_201)" stroke-width="2.772" stroke-miterlimit="10"/>
</g>
<mask id="mask32_138_201" style="mask-type:luminance" maskUnits="userSpaceOnUse" x="0" y="0" width="1440" height="802">
<path d="M0 802H1440V6.10352e-05H0V802Z" fill="white"/>
</mask>
<g mask="url(#mask32_138_201)">
<path d="M946.071 855.761C984.714 836.373 1005.35 794.887 994.526 758.33C991.926 749.544 989.363 737.562 999.212 733.794C1005.1 731.54 1012.23 734.296 1016.44 738.402C1020.66 742.51 1022.89 747.746 1026.05 752.466C1039.48 772.487 1072.19 781.608 1097.32 772.33C1103.57 770.025 1109.32 766.761 1115.82 765.026C1122.33 763.292 1130.16 763.401 1135.17 767.274C1140.43 771.332 1140.93 778.363 1138.4 783.954C1135.86 789.549 1130.9 794.082 1126.2 798.597C1092.64 830.919 1068.1 869.748 1055.09 911.134" stroke="url(#paint32_linear_138_201)" stroke-width="2.772" stroke-miterlimit="10"/>
</g>
<mask id="mask33_138_201" style="mask-type:luminance" maskUnits="userSpaceOnUse" x="0" y="0" width="1440" height="802">
<path d="M0 802H1440V6.10352e-05H0V802Z" fill="white"/>
</mask>
<g mask="url(#mask33_138_201)">
<path d="M1006.65 834.884C1008.26 823.715 1009.86 812.546 1011.46 801.378C1012.19 796.32 1013.82 790.273 1019.6 788.639C1023.85 787.436 1028.47 789.328 1031.95 791.706C1035.42 794.083 1038.45 797.042 1042.56 798.551C1053.29 802.484 1066.37 795.032 1077.15 798.859C1084.53 801.479 1088.18 808.742 1088.1 815.435C1087.92 829.085 1075.85 840.353 1064.25 849.961C1052.64 859.571 1040.04 870.117 1038.27 883.687" stroke="url(#paint33_linear_138_201)" stroke-width="2.772" stroke-miterlimit="10"/>
</g>
<mask id="mask34_138_201" style="mask-type:luminance" maskUnits="userSpaceOnUse" x="0" y="0" width="1441" height="802">
<path d="M0.00012207 802H1440V6.10352e-05H0.00012207V802Z" fill="white"/>
</mask>
<g mask="url(#mask34_138_201)">
<path d="M1359.71 553.186C1357.95 558.407 1359.92 563.918 1361.19 569.237C1367.61 595.913 1355.06 625.164 1329.83 642.367C1324.66 645.891 1318.33 650.34 1319.82 655.774C1320.91 659.731 1326.11 662.115 1330.97 662.152C1335.83 662.189 1340.42 660.437 1344.82 658.723C1378.99 645.413 1413.16 632.104 1447.32 618.794C1455.49 615.612 1465.01 610.631 1464.34 603.121C1463.83 597.352 1457.37 593.412 1451.53 590.299C1433.3 580.569 1415.07 570.841 1396.84 561.113C1388.36 556.591 1365.36 536.451 1359.71 553.186Z" stroke="url(#paint34_linear_138_201)" stroke-width="2.772" stroke-miterlimit="10"/>
</g>
<mask id="mask35_138_201" style="mask-type:luminance" maskUnits="userSpaceOnUse" x="0" y="0" width="1440" height="802">
<path d="M0 802H1440V6.10352e-05H0V802Z" fill="white"/>
</mask>
<g mask="url(#mask35_138_201)">
<path d="M1376.28 621.973C1373.63 625.529 1370.52 630.428 1374.07 633.387C1376.89 635.743 1381.64 634.632 1385.3 633.297C1392.24 630.769 1399.03 627.98 1405.66 624.94C1414.45 620.908 1423.69 615.618 1426 607.465C1429.62 594.671 1406.98 573.272 1390.13 577.359C1379.82 579.858 1382.59 586.019 1383.19 593.401C1384.05 604.124 1383.45 612.347 1376.28 621.973Z" stroke="url(#paint35_linear_138_201)" stroke-width="2.772" stroke-miterlimit="10"/>
</g>
<mask id="mask36_138_201" style="mask-type:luminance" maskUnits="userSpaceOnUse" x="0" y="0" width="1441" height="802">
<path d="M0.00012207 802H1440V0H0.00012207V802Z" fill="white"/>
</mask>
<g mask="url(#mask36_138_201)">
<path d="M1122.95 -29.3333C1112.3 -11.1423 1121.57 11.7211 1138.75 26.0015C1155.94 40.2819 1179.39 47.7918 1202.32 54.3522C1225.25 60.9142 1248.96 67.1569 1268 79.6826C1291.5 95.1403 1305.77 119.436 1308.27 144.337C1310.76 169.239 1301.97 194.518 1285.8 215.541C1272.16 233.274 1253.65 247.969 1237.93 264.46C1222.21 280.951 1208.88 300.406 1208.58 321.484C1208.21 348.207 1228.45 371.676 1247.78 392.969C1251.59 397.169 1256.51 401.811 1262.8 401.397C1268.59 401.017 1272.77 396.161 1273.47 391.345C1274.16 386.528 1272.24 381.748 1270.44 377.133C1258.91 347.467 1251.56 315.145 1262.29 285.267C1277.54 242.801 1324.74 215.185 1361.02 182.826C1423.02 127.52 1456.68 50.7368 1452.1 -24.9399" stroke="url(#paint36_linear_138_201)" stroke-width="2.772" stroke-miterlimit="10"/>
</g>
<mask id="mask37_138_201" style="mask-type:luminance" maskUnits="userSpaceOnUse" x="-1" y="0" width="1441" height="802">
<path d="M-0.00012207 802H1440V0H-0.00012207V802Z" fill="white"/>
</mask>
<g mask="url(#mask37_138_201)">
<path d="M1179.49 -20.6593C1177.65 -4.76686 1189.26 10.5016 1204.51 20.1336C1219.75 29.7656 1238.29 34.8696 1256.33 40.1403C1274.36 45.4111 1292.74 51.2416 1306.94 61.9339C1323.18 74.1724 1332.49 91.9351 1335.61 110.022C1338.04 124.139 1336.65 137.692 1333.48 151.509C1332.59 155.428 1327.56 158.362 1330.71 162.521C1341.22 176.429 1367.1 146.461 1371.48 140.146C1412.08 81.6679 1420.19 8.15976 1393.07 -55.5335" stroke="url(#paint37_linear_138_201)" stroke-width="2.772" stroke-miterlimit="10"/>
</g>
<mask id="mask38_138_201" style="mask-type:luminance" maskUnits="userSpaceOnUse" x="0" y="0" width="1440" height="802">
<path d="M0 802H1440V6.10352e-05H0V802Z" fill="white"/>
</mask>
<g mask="url(#mask38_138_201)">
<path d="M1234.02 -20.8411C1239.08 -7.83905 1252.66 1.59408 1266.94 8.27474C1281.22 14.957 1296.82 19.6615 1310.39 27.303C1326.85 36.5725 1339.83 50.0862 1347.1 65.5151C1350.31 72.3369 1355.71 81.207 1364.24 79.4859C1369.96 78.331 1372.51 72.8357 1373.8 68.0414C1383.27 32.8464 1371.87 -5.83405 1343.92 -33.3346" stroke="url(#paint38_linear_138_201)" stroke-width="2.772" stroke-miterlimit="10"/>
</g>
<mask id="mask39_138_201" style="mask-type:luminance" maskUnits="userSpaceOnUse" x="0" y="0" width="1440" height="802">
<path d="M0 802H1440V-6.10352e-05H0V802Z" fill="white"/>
</mask>
<g mask="url(#mask39_138_201)">
<path d="M1279.48 -13.5846C1302.7 -4.45785 1322.76 10.1883 1336.69 28.1835C1338.47 30.4773 1340.2 32.8768 1342.78 34.553C1345.37 36.2292 1349.06 37.0328 1351.95 35.7496C1357.1 33.4591 1356.07 27.1024 1354.03 22.5391C1345.69 3.92465 1332.64 -13.2061 1315.99 -27.395" stroke="url(#paint39_linear_138_201)" stroke-width="2.772" stroke-miterlimit="10"/>
</g>
<mask id="mask40_138_201" style="mask-type:luminance" maskUnits="userSpaceOnUse" x="0" y="0" width="1440" height="802">
<path d="M0 802H1440V0H0V802Z" fill="white"/>
</mask>
<g mask="url(#mask40_138_201)">
<path d="M862.719 -27.3957C862.719 -27.3957 947.067 -3.74311 1006.65 87.1507C1066.24 178.045 1051.98 269.19 1058.47 285.104C1064.96 301.017 1084.16 265.729 1099.52 241.135C1114.88 216.541 1162.24 198.123 1153.28 166.162C1144.32 134.201 995.841 106.399 979.2 -13.3671" stroke="url(#paint40_linear_138_201)" stroke-width="2.772" stroke-miterlimit="10"/>
</g>
<mask id="mask41_138_201" style="mask-type:luminance" maskUnits="userSpaceOnUse" x="0" y="0" width="1440" height="802">
<path d="M0 802H1440V-6.10352e-05H0V802Z" fill="white"/>
</mask>
<g mask="url(#mask41_138_201)">
<path d="M1057.53 137.375C1056.04 140.584 1056.79 144.176 1057.55 147.557C1063.54 174.079 1069.52 200.603 1075.51 227.126C1080.69 227.535 1084.92 223.447 1086.42 219.284C1087.93 215.124 1087.7 210.629 1089.22 206.475C1093.24 195.545 1108.45 189.022 1110.84 177.765C1112.63 169.374 1106.58 161.25 1099.84 154.853C1094.22 149.518 1064.22 122.895 1057.53 137.375Z" stroke="url(#paint41_linear_138_201)" stroke-width="2.772" stroke-miterlimit="10"/>
</g>
<mask id="mask42_138_201" style="mask-type:luminance" maskUnits="userSpaceOnUse" x="0" y="0" width="1440" height="802">
<path d="M0 802H1440V0H0V802Z" fill="white"/>
</mask>
<g mask="url(#mask42_138_201)">
<path d="M1025.73 351.529C1027.64 343.937 1028.53 334.48 1037.02 331.331C1043.34 328.988 1051.03 331.869 1055.24 336.445C1059.45 341.021 1060.99 346.882 1062.37 352.538C1069.47 381.71 1076.02 412.707 1099.39 435.176C1115.69 450.844 1138.55 460.641 1156.81 474.711C1180.54 492.986 1195.96 518.605 1199.39 545.409C1201.99 565.801 1195.52 589.535 1173.95 599.337C1155.67 607.641 1132.13 602.909 1115.41 592.554C1093.48 578.963 1080.72 557.375 1072.25 535.686C1063.78 513.998 1058.75 491.342 1048.09 470.336C1037.44 449.33 1019.89 429.416 994.549 420.913C987.15 418.43 979.199 416.951 972.4 413.472C949.362 401.678 965.684 388.02 983.676 385.49C1005.13 382.475 1021.09 369.952 1025.73 351.529Z" stroke="url(#paint42_linear_138_201)" stroke-width="2.772" stroke-miterlimit="10"/>
</g>
<mask id="mask43_138_201" style="mask-type:luminance" maskUnits="userSpaceOnUse" x="-1" y="0" width="1441" height="802">
<path d="M-0.00012207 802H1440V6.10352e-05H-0.00012207V802Z" fill="white"/>
</mask>
<g mask="url(#mask43_138_201)">
<path d="M1145.9 573.909C1128.35 569.014 1110.23 551.67 1103.26 542.349C1074.6 504.015 1075.52 452.636 1029.34 423.534C1019.26 417.184 1006.47 408.421 1011 398.579C1014.98 389.927 1030.45 389.197 1039.38 394.698C1048.31 400.199 1052.64 409.331 1057.72 417.571C1081.09 455.484 1126.18 480.208 1158.82 512.997C1171.99 526.23 1191.85 561.664 1163.96 573.452C1158.37 575.815 1152.17 575.658 1145.9 573.909Z" stroke="url(#paint43_linear_138_201)" stroke-width="2.772" stroke-miterlimit="10"/>
</g>
<mask id="mask44_138_201" style="mask-type:luminance" maskUnits="userSpaceOnUse" x="0" y="0" width="1440" height="802">
<path d="M0 802H1440V6.10352e-05H0V802Z" fill="white"/>
</mask>
<g mask="url(#mask44_138_201)">
<path d="M1466.66 243.083C1437.63 263.61 1408.12 287.556 1401.28 318.816C1396.88 338.951 1403.01 360.536 1417.76 376.876C1432.52 393.216 1455.68 404.066 1480.06 406.058" stroke="url(#paint44_linear_138_201)" stroke-width="2.772" stroke-miterlimit="10"/>
</g>
<mask id="mask45_138_201" style="mask-type:luminance" maskUnits="userSpaceOnUse" x="0" y="0" width="1440" height="802">
<path d="M0 802H1440V6.10352e-05H0V802Z" fill="white"/>
</mask>
<g mask="url(#mask45_138_201)">
<path d="M1447.85 290.492C1433 303.224 1427.11 322.787 1433.01 339.872C1438.91 356.958 1456.35 370.905 1477.04 375.075" stroke="url(#paint45_linear_138_201)" stroke-width="2.772" stroke-miterlimit="10"/>
</g>
<mask id="mask46_138_201" style="mask-type:luminance" maskUnits="userSpaceOnUse" x="-1" y="0" width="1441" height="802">
<path d="M-0.00012207 802H1440V6.10352e-05H-0.00012207V802Z" fill="white"/>
</mask>
<g mask="url(#mask46_138_201)">
<path d="M1389.72 816.882C1420.38 794.208 1459.08 780.869 1496.98 767.93" stroke="url(#paint46_linear_138_201)" stroke-width="2.772" stroke-miterlimit="10"/>
</g>
<path d="M0 -1.203H1440V802.401H0V-1.203Z" fill="url(#paint47_linear_138_201)"/>
</g>
<defs>
<linearGradient id="paint0_linear_138_201" x1="-133.266" y1="388.05" x2="1620.43" y2="388.05" gradientUnits="userSpaceOnUse">
<stop stop-color="#D7D74B"/>
<stop offset="0.486758" stop-color="#91DB64"/>
<stop offset="1" stop-color="#4CD680"/>
</linearGradient>
<linearGradient id="paint1_linear_138_201" x1="-106.079" y1="369.176" x2="1663.64" y2="369.176" gradientUnits="userSpaceOnUse">
<stop stop-color="#D7D74B"/>
<stop offset="0.486758" stop-color="#91DB64"/>
<stop offset="1" stop-color="#4CD680"/>
</linearGradient>
<linearGradient id="paint2_linear_138_201" x1="-88.6104" y1="462.672" x2="959.419" y2="462.672" gradientUnits="userSpaceOnUse">
<stop stop-color="#D7D74B"/>
<stop offset="0.486758" stop-color="#91DB64"/>
<stop offset="1" stop-color="#4CD680"/>
</linearGradient>
<linearGradient id="paint3_linear_138_201" x1="811.059" y1="405.465" x2="1318.47" y2="405.465" gradientUnits="userSpaceOnUse">
<stop stop-color="#D7D74B"/>
<stop offset="0.486758" stop-color="#91DB64"/>
<stop offset="1" stop-color="#4CD680"/>
</linearGradient>
<linearGradient id="paint4_linear_138_201" x1="1182.9" y1="483.373" x2="1568.12" y2="483.373" gradientUnits="userSpaceOnUse">
<stop stop-color="#D7D74B"/>
<stop offset="0.486758" stop-color="#91DB64"/>
<stop offset="1" stop-color="#4CD680"/>
</linearGradient>
<linearGradient id="paint5_linear_138_201" x1="-52.46" y1="511.812" x2="309.417" y2="511.812" gradientUnits="userSpaceOnUse">
<stop stop-color="#D7D74B"/>
<stop offset="0.486758" stop-color="#91DB64"/>
<stop offset="1" stop-color="#4CD680"/>
</linearGradient>
<linearGradient id="paint6_linear_138_201" x1="164.055" y1="240.71" x2="265.965" y2="240.71" gradientUnits="userSpaceOnUse">
<stop stop-color="#D7D74B"/>
<stop offset="0.486758" stop-color="#91DB64"/>
<stop offset="1" stop-color="#4CD680"/>
</linearGradient>
<linearGradient id="paint7_linear_138_201" x1="-60.8888" y1="626.834" x2="187.79" y2="626.834" gradientUnits="userSpaceOnUse">
<stop stop-color="#D7D74B"/>
<stop offset="0.486758" stop-color="#91DB64"/>
<stop offset="1" stop-color="#4CD680"/>
</linearGradient>
<linearGradient id="paint8_linear_138_201" x1="-78.8027" y1="645.183" x2="132.234" y2="645.183" gradientUnits="userSpaceOnUse">
<stop stop-color="#D7D74B"/>
<stop offset="0.486758" stop-color="#91DB64"/>
<stop offset="1" stop-color="#4CD680"/>
</linearGradient>
<linearGradient id="paint9_linear_138_201" x1="-28.5214" y1="497.682" x2="13.6289" y2="497.682" gradientUnits="userSpaceOnUse">
<stop stop-color="#D7D74B"/>
<stop offset="0.486758" stop-color="#91DB64"/>
<stop offset="1" stop-color="#4CD680"/>
</linearGradient>
<linearGradient id="paint10_linear_138_201" x1="-30.0983" y1="739.403" x2="85.6888" y2="739.403" gradientUnits="userSpaceOnUse">
<stop stop-color="#D7D74B"/>
<stop offset="0.486758" stop-color="#91DB64"/>
<stop offset="1" stop-color="#4CD680"/>
</linearGradient>
<linearGradient id="paint11_linear_138_201" x1="-40.1705" y1="790.306" x2="42.6018" y2="790.306" gradientUnits="userSpaceOnUse">
<stop stop-color="#D7D74B"/>
<stop offset="0.486758" stop-color="#91DB64"/>
<stop offset="1" stop-color="#4CD680"/>
</linearGradient>
<linearGradient id="paint12_linear_138_201" x1="-33.8372" y1="809.994" x2="9.1798" y2="809.994" gradientUnits="userSpaceOnUse">
<stop stop-color="#D7D74B"/>
<stop offset="0.486758" stop-color="#91DB64"/>
<stop offset="1" stop-color="#4CD680"/>
</linearGradient>
<linearGradient id="paint13_linear_138_201" x1="-94.7542" y1="116.465" x2="678.151" y2="116.465" gradientUnits="userSpaceOnUse">
<stop stop-color="#D7D74B"/>
<stop offset="0.486758" stop-color="#91DB64"/>
<stop offset="1" stop-color="#4CD680"/>
</linearGradient>
<linearGradient id="paint14_linear_138_201" x1="-88.7694" y1="81.4166" x2="121.838" y2="81.4166" gradientUnits="userSpaceOnUse">
<stop stop-color="#D7D74B"/>
<stop offset="0.486758" stop-color="#91DB64"/>
<stop offset="1" stop-color="#4CD680"/>
</linearGradient>
<linearGradient id="paint15_linear_138_201" x1="-13.1424" y1="32.9431" x2="74.518" y2="32.9431" gradientUnits="userSpaceOnUse">
<stop stop-color="#D7D74B"/>
<stop offset="0.486758" stop-color="#91DB64"/>
<stop offset="1" stop-color="#4CD680"/>
</linearGradient>
<linearGradient id="paint16_linear_138_201" x1="393.032" y1="-6.00603" x2="594.676" y2="-6.00603" gradientUnits="userSpaceOnUse">
<stop stop-color="#D7D74B"/>
<stop offset="0.486758" stop-color="#91DB64"/>
<stop offset="1" stop-color="#4CD680"/>
</linearGradient>
<linearGradient id="paint17_linear_138_201" x1="463.848" y1="224.512" x2="528.768" y2="224.512" gradientUnits="userSpaceOnUse">
<stop stop-color="#D7D74B"/>
<stop offset="0.486758" stop-color="#91DB64"/>
<stop offset="1" stop-color="#4CD680"/>
</linearGradient>
<linearGradient id="paint18_linear_138_201" x1="259.733" y1="472.912" x2="370.624" y2="472.912" gradientUnits="userSpaceOnUse">
<stop stop-color="#D7D74B"/>
<stop offset="0.486758" stop-color="#91DB64"/>
<stop offset="1" stop-color="#4CD680"/>
</linearGradient>
<linearGradient id="paint19_linear_138_201" x1="296.202" y1="473.303" x2="335.775" y2="473.303" gradientUnits="userSpaceOnUse">
<stop stop-color="#D7D74B"/>
<stop offset="0.486758" stop-color="#91DB64"/>
<stop offset="1" stop-color="#4CD680"/>
</linearGradient>
<linearGradient id="paint20_linear_138_201" x1="461.559" y1="499.681" x2="631.59" y2="499.681" gradientUnits="userSpaceOnUse">
<stop stop-color="#D7D74B"/>
<stop offset="0.486758" stop-color="#91DB64"/>
<stop offset="1" stop-color="#4CD680"/>
</linearGradient>
<linearGradient id="paint21_linear_138_201" x1="525.897" y1="570.346" x2="594.08" y2="570.346" gradientUnits="userSpaceOnUse">
<stop stop-color="#D7D74B"/>
<stop offset="0.486758" stop-color="#91DB64"/>
<stop offset="1" stop-color="#4CD680"/>
</linearGradient>
<linearGradient id="paint22_linear_138_201" x1="636.181" y1="213.39" x2="888.008" y2="213.39" gradientUnits="userSpaceOnUse">
<stop stop-color="#D7D74B"/>
<stop offset="0.486758" stop-color="#91DB64"/>
<stop offset="1" stop-color="#4CD680"/>
</linearGradient>
<linearGradient id="paint23_linear_138_201" x1="683.908" y1="212.391" x2="846.147" y2="212.391" gradientUnits="userSpaceOnUse">
<stop stop-color="#D7D74B"/>
<stop offset="0.486758" stop-color="#91DB64"/>
<stop offset="1" stop-color="#4CD680"/>
</linearGradient>
<linearGradient id="paint24_linear_138_201" x1="723.939" y1="164.989" x2="811.861" y2="164.989" gradientUnits="userSpaceOnUse">
<stop stop-color="#D7D74B"/>
<stop offset="0.486758" stop-color="#91DB64"/>
<stop offset="1" stop-color="#4CD680"/>
</linearGradient>
<linearGradient id="paint25_linear_138_201" x1="661.161" y1="466.497" x2="764.192" y2="466.497" gradientUnits="userSpaceOnUse">
<stop stop-color="#D7D74B"/>
<stop offset="0.486758" stop-color="#91DB64"/>
<stop offset="1" stop-color="#4CD680"/>
</linearGradient>
<linearGradient id="paint26_linear_138_201" x1="690.887" y1="462.393" x2="733.484" y2="462.393" gradientUnits="userSpaceOnUse">
<stop stop-color="#D7D74B"/>
<stop offset="0.486758" stop-color="#91DB64"/>
<stop offset="1" stop-color="#4CD680"/>
</linearGradient>
<linearGradient id="paint27_linear_138_201" x1="342.477" y1="746.072" x2="795.277" y2="746.072" gradientUnits="userSpaceOnUse">
<stop stop-color="#D7D74B"/>
<stop offset="0.486758" stop-color="#91DB64"/>
<stop offset="1" stop-color="#4CD680"/>
</linearGradient>
<linearGradient id="paint28_linear_138_201" x1="389.898" y1="766.033" x2="761.068" y2="766.033" gradientUnits="userSpaceOnUse">
<stop stop-color="#D7D74B"/>
<stop offset="0.486758" stop-color="#91DB64"/>
<stop offset="1" stop-color="#4CD680"/>
</linearGradient>
<linearGradient id="paint29_linear_138_201" x1="427.302" y1="809.435" x2="598.829" y2="809.435" gradientUnits="userSpaceOnUse">
<stop stop-color="#D7D74B"/>
<stop offset="0.486758" stop-color="#91DB64"/>
<stop offset="1" stop-color="#4CD680"/>
</linearGradient>
<linearGradient id="paint30_linear_138_201" x1="862.6" y1="688.765" x2="1529.63" y2="688.765" gradientUnits="userSpaceOnUse">
<stop stop-color="#D7D74B"/>
<stop offset="0.486758" stop-color="#91DB64"/>
<stop offset="1" stop-color="#4CD680"/>
</linearGradient>
<linearGradient id="paint31_linear_138_201" x1="907.515" y1="749.611" x2="1207.25" y2="749.611" gradientUnits="userSpaceOnUse">
<stop stop-color="#D7D74B"/>
<stop offset="0.486758" stop-color="#91DB64"/>
<stop offset="1" stop-color="#4CD680"/>
</linearGradient>
<linearGradient id="paint32_linear_138_201" x1="940.039" y1="822.06" x2="1144.43" y2="822.06" gradientUnits="userSpaceOnUse">
<stop stop-color="#D7D74B"/>
<stop offset="0.486758" stop-color="#91DB64"/>
<stop offset="1" stop-color="#4CD680"/>
</linearGradient>
<linearGradient id="paint33_linear_138_201" x1="1004.12" y1="835.976" x2="1090.01" y2="835.976" gradientUnits="userSpaceOnUse">
<stop stop-color="#D7D74B"/>
<stop offset="0.486758" stop-color="#91DB64"/>
<stop offset="1" stop-color="#4CD680"/>
</linearGradient>
<linearGradient id="paint34_linear_138_201" x1="1315.09" y1="604.4" x2="1467.77" y2="604.4" gradientUnits="userSpaceOnUse">
<stop stop-color="#D7D74B"/>
<stop offset="0.486758" stop-color="#91DB64"/>
<stop offset="1" stop-color="#4CD680"/>
</linearGradient>
<linearGradient id="paint35_linear_138_201" x1="1370.8" y1="605.805" x2="1427.65" y2="605.805" gradientUnits="userSpaceOnUse">
<stop stop-color="#D7D74B"/>
<stop offset="0.486758" stop-color="#91DB64"/>
<stop offset="1" stop-color="#4CD680"/>
</linearGradient>
<linearGradient id="paint36_linear_138_201" x1="1108.02" y1="186.045" x2="1460.36" y2="186.045" gradientUnits="userSpaceOnUse">
<stop stop-color="#D7D74B"/>
<stop offset="0.486758" stop-color="#91DB64"/>
<stop offset="1" stop-color="#4CD680"/>
</linearGradient>
<linearGradient id="paint37_linear_138_201" x1="1172.15" y1="55.3145" x2="1414.27" y2="55.3145" gradientUnits="userSpaceOnUse">
<stop stop-color="#D7D74B"/>
<stop offset="0.486758" stop-color="#91DB64"/>
<stop offset="1" stop-color="#4CD680"/>
</linearGradient>
<linearGradient id="paint38_linear_138_201" x1="1229.57" y1="23.1842" x2="1380.43" y2="23.1842" gradientUnits="userSpaceOnUse">
<stop stop-color="#D7D74B"/>
<stop offset="0.486758" stop-color="#91DB64"/>
<stop offset="1" stop-color="#4CD680"/>
</linearGradient>
<linearGradient id="paint39_linear_138_201" x1="1277.11" y1="4.49373" x2="1357.49" y2="4.49373" gradientUnits="userSpaceOnUse">
<stop stop-color="#D7D74B"/>
<stop offset="0.486758" stop-color="#91DB64"/>
<stop offset="1" stop-color="#4CD680"/>
</linearGradient>
<linearGradient id="paint40_linear_138_201" x1="853.642" y1="130.845" x2="1161.24" y2="130.845" gradientUnits="userSpaceOnUse">
<stop stop-color="#D7D74B"/>
<stop offset="0.486758" stop-color="#91DB64"/>
<stop offset="1" stop-color="#4CD680"/>
</linearGradient>
<linearGradient id="paint41_linear_138_201" x1="1054.98" y1="180.134" x2="1112.44" y2="180.134" gradientUnits="userSpaceOnUse">
<stop stop-color="#D7D74B"/>
<stop offset="0.486758" stop-color="#91DB64"/>
<stop offset="1" stop-color="#4CD680"/>
</linearGradient>
<linearGradient id="paint42_linear_138_201" x1="953.624" y1="467.041" x2="1205.54" y2="467.041" gradientUnits="userSpaceOnUse">
<stop stop-color="#D7D74B"/>
<stop offset="0.486758" stop-color="#91DB64"/>
<stop offset="1" stop-color="#4CD680"/>
</linearGradient>
<linearGradient id="paint43_linear_138_201" x1="1004.83" y1="483.207" x2="1182.01" y2="483.207" gradientUnits="userSpaceOnUse">
<stop stop-color="#D7D74B"/>
<stop offset="0.486758" stop-color="#91DB64"/>
<stop offset="1" stop-color="#4CD680"/>
</linearGradient>
<linearGradient id="paint44_linear_138_201" x1="1397.39" y1="324.571" x2="1481.94" y2="324.571" gradientUnits="userSpaceOnUse">
<stop stop-color="#D7D74B"/>
<stop offset="0.486758" stop-color="#91DB64"/>
<stop offset="1" stop-color="#4CD680"/>
</linearGradient>
<linearGradient id="paint45_linear_138_201" x1="1429.31" y1="332.783" x2="1478.13" y2="332.783" gradientUnits="userSpaceOnUse">
<stop stop-color="#D7D74B"/>
<stop offset="0.486758" stop-color="#91DB64"/>
<stop offset="1" stop-color="#4CD680"/>
</linearGradient>
<linearGradient id="paint46_linear_138_201" x1="1386.38" y1="792.406" x2="1499.5" y2="792.406" gradientUnits="userSpaceOnUse">
<stop stop-color="#D7D74B"/>
<stop offset="0.486758" stop-color="#91DB64"/>
<stop offset="1" stop-color="#4CD680"/>
</linearGradient>
<linearGradient id="paint47_linear_138_201" x1="720" y1="-1.203" x2="720" y2="802.401" gradientUnits="userSpaceOnUse">
<stop stop-color="#032C1E" stop-opacity="0"/>
<stop offset="0.9999" stop-color="#032C1E"/>
</linearGradient>
<clipPath id="clip0_138_201">
<rect width="1440" height="802" fill="white"/>
</clipPath>
</defs>
</svg>
