<svg width="405" height="427" viewBox="0 0 405 427" fill="none" xmlns="http://www.w3.org/2000/svg">
<path d="M234.87 419.716C237.928 423.362 242.31 425.643 247.051 426.057C251.792 426.472 256.503 424.987 260.148 421.928C263.794 418.869 266.075 414.487 266.49 409.747C266.904 405.006 265.419 400.295 262.36 396.649C262.095 396.333 238.391 364.622 272.244 296.771C343.729 275.553 370.956 302.949 372.529 304.628C375.621 308.246 380.023 310.487 384.767 310.859C389.512 311.232 394.21 309.704 397.828 306.612C401.446 303.52 403.687 299.118 404.059 294.374C404.431 289.629 402.903 284.931 399.812 281.313C398.312 279.526 366.748 243.473 292.374 255.357C318.792 193.3 305.709 169.166 284.476 143.861C263.243 118.557 241.748 101.482 176.046 116.723C200.664 45.542 170.639 8.19648 169.14 6.4096C166.081 2.76416 161.699 0.483137 156.959 0.0683794C152.218 -0.346368 147.507 1.1391 143.861 4.198C140.216 7.2569 137.935 11.6387 137.52 16.3794C137.105 21.12 138.591 25.8313 141.65 29.4768C141.915 29.7929 165.619 61.5037 131.765 129.355C59.6793 150.749 32.5418 122.763 31.6883 121.745C28.6294 118.1 24.2476 115.819 19.5069 115.404C14.7663 114.989 10.055 116.475 6.40952 119.534C2.76407 122.593 0.483075 126.974 0.0683181 131.715C-0.346438 136.456 1.13902 141.167 4.19792 144.813C5.69728 146.599 37.2617 182.653 111.636 170.769C85.2176 232.826 98.3004 256.96 119.534 282.264C140.767 307.569 162.262 324.644 227.964 309.403C203.345 380.584 233.37 417.929 234.87 419.716ZM147.024 259.197C131.938 241.219 121.054 227.912 156.828 159.223C230.686 135.92 241.9 148.95 256.986 166.929C272.072 184.907 282.956 198.214 247.182 266.903C173.324 290.205 162.11 277.176 147.024 259.197Z" fill="#032C1E" fill-opacity="0.1"/>
</svg>
