<svg width="153" height="35" viewBox="0 0 153 35" fill="none" xmlns="http://www.w3.org/2000/svg">
<g clip-path="url(#clip0_118_658)">
<path d="M23.5224 10.5375C23.5224 13.2067 23.4898 15.7902 23.3808 17.9663C23.1847 22.0934 18.6523 24.6447 14.12 23.5619C11.5923 22.951 9.60945 21.6646 8.98843 19.0168C8.36742 16.3798 9.80556 14.6217 11.7231 12.9816C13.0632 11.8453 14.2834 10.4946 15.2749 9.04746C16.6476 7.08574 16.3099 2.42266 14.6321 0H17.8352C19.6112 3.45176 19.208 9.18681 16.6258 12.0597C15.6998 13.0781 14.7301 14.0643 13.7605 15.0397C11.9083 16.9264 11.7231 18.6202 13.2375 19.9279C14.9371 21.4287 18.0968 21.3215 19.2843 19.4991C19.9925 18.4058 20.4827 16.9907 20.5263 15.7044C20.6897 11.3308 20.6462 4.54516 20.6462 0.0321579H23.4026C23.4571 3.14088 23.5224 6.91423 23.5224 10.5375ZM18.5434 31.2587C15.1332 31.6232 11.6251 31.4302 8.3892 30.2404C8.34563 30.2296 8.30205 30.2082 8.24757 30.1868C5.92692 29.3185 2.47318 27.3461 0.51207 25.8774C0.348643 25.7595 0.174321 25.6309 0 25.5237V29.6508C1.67784 31.1408 5.06621 32.2878 7.02732 32.8989C9.5005 33.6707 12.0499 34.1209 14.6429 34.1102C17.1162 34.0888 20.9404 33.7136 23.5224 33.3383V30.7013C21.9318 30.6262 19.7092 31.1408 18.5434 31.2587ZM4.52145 5.39202C4.14013 3.97701 3.23584 1.64012 2.12454 0.0321579H0.0108957V1.06126C0.174322 1.37212 0.403117 1.66156 0.697284 1.94027C1.85216 2.9908 1.27472 6.96783 0.15253 7.9862C0.10895 8.02908 0.0653711 8.07195 0.0108957 8.12556V11.1378C0.0217908 11.1378 0.0217888 11.1271 0.0326839 11.1271C1.18757 10.3874 2.87629 9.16537 3.83507 8.23276C4.43429 7.61101 4.73936 6.23888 4.52145 5.39202Z" fill="url(#paint0_linear_118_658)"/>
<path d="M23.5224 25.1485V28.0429C23.4135 28.075 23.3045 28.1178 23.1738 28.15C18.064 29.5651 11.4725 29.6508 6.86387 26.7457C1.74319 23.5191 -0.130767 17.4303 3.70429 12.4135C4.67395 11.1485 5.9051 10.0766 7.07087 8.97243C9.60942 6.58193 9.63122 2.66923 7.09266 0.310884C6.99461 0.214406 6.88566 0.117928 6.77671 0.02145H9.91448C10.8732 1.61869 11.6359 3.77336 12.0608 4.82389C12.8671 6.81776 11.4507 8.70444 10.0343 10.023C8.85767 11.1163 7.681 12.2313 6.5697 13.3889C3.80235 16.2941 4.84828 22.0291 8.63976 24.3338C12.9324 26.9387 18.9465 27.0352 23.5224 25.1485Z" fill="url(#paint1_linear_118_658)"/>
<path d="M6.47154 34.9142H0.947734C0.631777 34.7855 0.38119 34.689 0.239555 34.6462C0.152394 34.6141 0.0761278 34.5819 0.0107574 34.539V31.5804C0.185078 31.5161 0.370294 31.5267 0.544616 31.6232C1.40533 32.0841 4.93532 34.0567 6.47154 34.9142Z" fill="url(#paint2_linear_118_658)"/>
<path d="M36.5168 23.0057H43.5069V25.4461H33.9362V9.94076H43.4066V12.3812H36.5418V16.3993H42.8304V18.8151H36.5168V23.0057Z" fill="#FEFFF3"/>
<path d="M53.9542 25.4461L48.4674 9.94076H51.2986L55.4826 22.3648L59.6916 9.94076H62.4977L57.0109 25.4461H53.9542Z" fill="#FEFFF3"/>
<path d="M70.0892 23.0057H77.0791V25.4461H67.5086V9.94076H76.979V12.3812H70.1142V16.3993H76.4027V18.8151H70.0892V23.0057Z" fill="#FEFFF3"/>
<path d="M91.0593 25.4461L87.7271 19.8011H84.6706V25.4461H82.09V9.94076H88.4036C89.8067 9.94076 91.0092 10.4338 91.9864 11.3952C92.9635 12.3566 93.4646 13.5398 93.4646 14.9203C93.4646 15.9063 93.1638 16.8183 92.5876 17.6318C92.0114 18.4453 91.2598 19.0369 90.3328 19.4067L93.9155 25.4461H91.0593ZM84.6706 12.3073V17.484H88.3786C89.0801 17.484 89.6563 17.2374 90.1324 16.7198C90.6083 16.2267 90.8589 15.6104 90.8589 14.871C90.8589 14.1561 90.6083 13.5398 90.1324 13.0221C89.6563 12.5291 89.0551 12.258 88.3786 12.258H84.6706V12.3073Z" fill="#FEFFF3"/>
<path d="M101.908 25.4461L96.421 9.94076H99.252L103.436 22.3648L107.645 9.94076H110.476L104.989 25.4461H101.908Z" fill="#FEFFF3"/>
<path d="M122.226 25.4461L121.124 22.3155H114.41L113.307 25.4461H110.476L116.188 9.94076H119.295L125.007 25.4461H122.226ZM115.262 19.9243H120.248L117.767 12.9235L115.262 19.9243Z" fill="#FEFFF3"/>
<path d="M131.947 23.0057H138.361V25.4461H129.341V9.94076H131.922V23.0057H131.947Z" fill="#FEFFF3"/>
<path d="M145.978 23.0057H152.967V25.4461H143.397V9.94076H152.867V12.3812H146.003V16.3993H152.317V18.8151H146.003V23.0057H145.978Z" fill="#FEFFF3"/>
</g>
<defs>
<linearGradient id="paint0_linear_118_658" x1="0.00941334" y1="17.0705" x2="23.524" y2="17.0705" gradientUnits="userSpaceOnUse">
<stop offset="0.0111732" stop-color="#1CB69A"/>
<stop offset="0.5" stop-color="#58DF78"/>
<stop offset="1" stop-color="#E5D645"/>
</linearGradient>
<linearGradient id="paint1_linear_118_658" x1="20.0021" y1="8.34757" x2="5.58004" y2="25.8163" gradientUnits="userSpaceOnUse">
<stop offset="0.0111732" stop-color="#1CB69A"/>
<stop offset="0.5" stop-color="#58DF78"/>
<stop offset="1" stop-color="#E5D645"/>
</linearGradient>
<linearGradient id="paint2_linear_118_658" x1="3.74392" y1="32.657" x2="1.31079" y2="35.6041" gradientUnits="userSpaceOnUse">
<stop offset="0.0111732" stop-color="#1CB69A"/>
<stop offset="0.5" stop-color="#58DF78"/>
<stop offset="1" stop-color="#E5D645"/>
</linearGradient>
<clipPath id="clip0_118_658">
<rect width="153" height="35" fill="white"/>
</clipPath>
</defs>
</svg>
