<svg width="300" height="300" viewBox="0 0 300 300" fill="none" xmlns="http://www.w3.org/2000/svg">
<path d="M150.03 300L143.377 296.679C117.195 282.918 91.8121 267.687 67.3497 251.058C18.203 218.26 2.84283 63.8814 1.19071 46.3807L0 33.3482L150.03 0L300 33.3482L298.869 46.3807C297.276 63.8814 281.916 218.26 232.769 251.058C208.289 267.714 182.887 282.97 156.683 296.753L150.03 300ZM32.2237 56.7024C39.1 118.022 57.6156 208.758 83.8708 226.273C115.127 247.125 138.941 260.53 150.03 266.488C161.059 260.53 185.007 247.125 216.189 226.273C242.444 208.758 260.96 118.037 267.836 56.7024L150.03 30.5034L32.2237 56.7024Z" fill="#032C1E" fill-opacity="0.1"/>
</svg>
