<svg width="20" height="16" viewBox="0 0 20 16" fill="none" xmlns="http://www.w3.org/2000/svg">
<path d="M17.2125 3.85593L17.2245 4.36252C17.2245 9.53565 13.2674 15.4955 6.03045 15.4955C3.80925 15.4955 1.7418 14.8479 0 13.7373C0.307647 13.7731 0.621207 13.793 0.938841 13.793C2.78255 13.793 4.47842 13.1672 5.82472 12.1182C4.1029 12.0865 2.65068 10.9541 2.14932 9.40057C2.391 9.44625 2.63471 9.46814 2.89038 9.46814C3.24994 9.46814 3.59747 9.42246 3.92706 9.33306C2.12731 8.97148 0.771022 7.39216 0.771022 5.49694V5.44727C1.30234 5.74128 1.90758 5.91609 2.55277 5.93799C1.49809 5.23671 0.802957 4.03878 0.802957 2.68191C0.802957 1.96476 0.996731 1.29328 1.33427 0.715193C3.27385 3.08323 6.17422 4.64072 9.44413 4.80364C9.37619 4.51753 9.34229 4.21758 9.34229 3.91167C9.34229 1.75224 11.1041 0 13.2774 0C14.4079 0 15.4307 0.47477 16.1497 1.23564C17.0446 1.05881 17.8876 0.733034 18.6486 0.286038C18.355 1.1999 17.7318 1.96672 16.9188 2.45142C17.7118 2.35803 18.4729 2.14545 19.178 1.83556C18.6507 2.61826 17.9815 3.30764 17.2125 3.85593Z" fill="#F3FFFF"/>
</svg>
