<svg width="20" height="20" viewBox="0 0 20 20" fill="none" xmlns="http://www.w3.org/2000/svg">
<path d="M10 0C12.7156 0 13.0566 0.0115114 14.123 0.0595703C15.7479 0.133326 17.1755 0.529594 18.3213 1.66895C19.4671 2.80853 19.8663 4.22858 19.9404 5.84473C19.9888 6.90547 20 7.24454 20 9.94531C20 12.6459 19.9887 12.9854 19.9404 14.0459C19.8663 15.662 19.4671 17.0821 18.3213 18.2217C17.1755 19.3612 15.748 19.7573 14.123 19.8311C13.0566 19.8791 12.7156 19.8906 10 19.8906C7.2844 19.8906 6.9434 19.8791 5.87695 19.8311C4.25202 19.7573 2.82452 19.3612 1.67871 18.2217C0.532878 17.0821 0.133737 15.662 0.0595703 14.0459C0.0112549 12.9854 0 12.6459 0 9.94531C5.16275e-07 7.24454 0.0112423 6.90547 0.0595703 5.84473C0.133737 4.22858 0.532878 2.80853 1.67871 1.66895C2.82449 0.529594 4.2521 0.133326 5.87695 0.0595703C6.94339 0.0115114 7.28441 0 10 0ZM9.99902 1.79199C7.32911 1.79199 7.01216 1.80154 5.95801 1.84961C4.81977 1.90102 3.76361 2.12851 2.95117 2.93652C2.13886 3.74455 1.91104 4.79476 1.85938 5.92676C1.81104 6.97514 1.80078 7.29017 1.80078 9.94531C1.80078 12.6008 1.81104 12.9164 1.85938 13.9648C1.91108 15.0968 2.13881 16.1471 2.95117 16.9551C3.7636 17.7631 4.81978 17.9896 5.95801 18.041C7.01216 18.0891 7.32911 18.0996 9.99902 18.0996C12.669 18.0996 12.9859 18.0891 14.04 18.041C15.1783 17.9896 16.2344 17.7631 17.0469 16.9551C17.8593 16.1471 18.087 15.0968 18.1387 13.9648C18.187 12.9164 18.1973 12.6008 18.1973 9.94531C18.1973 7.29017 18.187 6.97514 18.1387 5.92676C18.087 4.79472 17.8593 3.74456 17.0469 2.93652C16.2344 2.12847 15.1783 1.901 14.04 1.84961C12.9859 1.80154 12.669 1.79199 9.99902 1.79199ZM9.99805 4.83789C12.8339 4.83789 15.1328 7.12494 15.1328 9.94531C15.1326 12.7655 12.8337 15.0518 9.99805 15.0518C7.16246 15.0516 4.86351 12.7654 4.86328 9.94531C4.86328 7.12501 7.16232 4.83801 9.99805 4.83789ZM9.99707 6.62988C8.15639 6.63005 6.66406 8.11462 6.66406 9.94531C6.66421 11.7759 8.15648 13.2596 9.99707 13.2598C11.8378 13.2598 13.3309 11.776 13.3311 9.94531C13.3311 8.11452 11.8379 6.62988 9.99707 6.62988ZM15.3369 3.44336C15.9995 3.44347 16.5371 3.9777 16.5371 4.63672C16.5371 5.29578 15.9996 5.82997 15.3369 5.83008C14.6742 5.83008 14.1367 5.29585 14.1367 4.63672C14.1368 3.97764 14.6742 3.44336 15.3369 3.44336Z" fill="#F3FFFF"/>
</svg>
