<svg width="48" height="48" viewBox="0 0 48 48" fill="none" xmlns="http://www.w3.org/2000/svg">
<circle cx="24" cy="24" r="24" fill="#032C1E"/>
<path d="M17.5714 13.2857C17.5714 15.6527 15.6527 17.5714 13.2857 17.5714C10.9188 17.5714 9 15.6527 9 13.2857C9 10.9188 10.9188 9 13.2857 9C15.6527 9 17.5714 10.9188 17.5714 13.2857Z" fill="#F3FFFF"/>
<path d="M39 34.7143C39 37.0813 37.0813 39 34.7143 39C32.3473 39 30.4286 37.0813 30.4286 34.7143C30.4286 32.3473 32.3473 30.4286 34.7143 30.4286C37.0813 30.4286 39 32.3473 39 34.7143Z" fill="#F3FFFF"/>
<path d="M26.1429 16.5C26.1429 14.7248 27.5819 13.2857 29.3571 13.2857C31.1323 13.2857 32.5714 14.7248 32.5714 16.5V26.1429H36.8571V16.5C36.8571 12.3579 33.4993 9 29.3571 9C25.215 9 21.8571 12.3579 21.8571 16.5V31.5C21.8571 33.2751 20.4181 34.7143 18.6429 34.7143C16.8677 34.7143 15.4286 33.2751 15.4286 31.5V21.8571H11.1429V31.5C11.1429 35.6421 14.5007 39 18.6429 39C22.785 39 26.1429 35.6421 26.1429 31.5V16.5Z" fill="#F3FFFF"/>
</svg>
