<svg width="361" height="328" viewBox="0 0 361 328" fill="none" xmlns="http://www.w3.org/2000/svg">
<path d="M83.1413 85.1255C91.2367 107.367 79.7687 131.961 57.5268 140.056C35.2849 148.151 10.6916 136.683 2.59624 114.441C-5.49916 92.1996 5.96885 67.6063 28.2108 59.5109C50.4527 51.4155 75.0459 62.8836 83.1413 85.1255Z" fill="#032C1E" fill-opacity="0.1"/>
<path d="M357.794 213.198C365.89 235.441 354.422 260.033 332.18 268.129C309.937 276.224 285.345 264.757 277.249 242.514C269.153 220.272 280.621 195.679 302.864 187.584C325.106 179.488 349.698 190.956 357.794 213.198Z" fill="#032C1E" fill-opacity="0.1"/>
<path d="M174.68 86.0139C168.608 69.3324 177.209 50.8875 193.891 44.816C210.572 38.7446 229.017 47.3454 235.089 64.0269L268.069 154.64L308.342 139.982L275.361 49.3688C261.194 10.4454 218.156 -9.62355 179.233 4.54341C140.309 18.7104 120.24 61.7485 134.407 100.672L185.71 241.626C191.782 258.307 183.181 276.752 166.499 282.824C149.818 288.895 131.373 280.294 125.302 263.613L92.3211 173L52.0485 187.658L85.029 278.271C99.196 317.194 142.234 337.263 181.157 323.096C220.081 308.929 240.15 265.891 225.983 226.968L174.68 86.0139Z" fill="#032C1E" fill-opacity="0.1"/>
</svg>
