<svg width="24" height="35" viewBox="0 0 24 35" fill="none" xmlns="http://www.w3.org/2000/svg">
<path d="M23.5224 10.5375C23.5224 13.2067 23.4898 15.7902 23.3808 17.9663C23.1847 22.0934 18.6523 24.6447 14.12 23.5619C11.5923 22.951 9.60945 21.6646 8.98843 19.0168C8.36742 16.3798 9.80556 14.6217 11.7231 12.9816C13.0632 11.8453 14.2834 10.4946 15.2749 9.04746C16.6476 7.08574 16.3099 2.42266 14.6321 0H17.8352C19.6112 3.45176 19.208 9.18681 16.6258 12.0597C15.6998 13.0781 14.7301 14.0643 13.7605 15.0397C11.9083 16.9264 11.7231 18.6202 13.2375 19.9279C14.9371 21.4287 18.0968 21.3215 19.2843 19.4991C19.9925 18.4058 20.4827 16.9907 20.5263 15.7044C20.6897 11.3308 20.6462 4.54516 20.6462 0.0321579H23.4026C23.4571 3.14088 23.5224 6.91423 23.5224 10.5375ZM18.5434 31.2587C15.1332 31.6232 11.6251 31.4302 8.3892 30.2404C8.34563 30.2296 8.30205 30.2082 8.24757 30.1868C5.92692 29.3185 2.47318 27.3461 0.51207 25.8774C0.348643 25.7595 0.174321 25.6309 0 25.5237V29.6508C1.67784 31.1408 5.06621 32.2878 7.02732 32.8989C9.5005 33.6707 12.0499 34.1209 14.6429 34.1102C17.1162 34.0888 20.9404 33.7136 23.5224 33.3383V30.7013C21.9318 30.6262 19.7092 31.1408 18.5434 31.2587ZM4.52145 5.39202C4.14013 3.97701 3.23584 1.64012 2.12454 0.0321579H0.0108957V1.06126C0.174322 1.37212 0.403117 1.66156 0.697284 1.94027C1.85216 2.9908 1.27472 6.96783 0.15253 7.9862C0.10895 8.02908 0.0653711 8.07195 0.0108957 8.12556V11.1378C0.0217908 11.1378 0.0217888 11.1271 0.0326839 11.1271C1.18757 10.3874 2.87629 9.16537 3.83507 8.23276C4.43429 7.61101 4.73936 6.23888 4.52145 5.39202Z" fill="url(#paint0_linear_471_207)"/>
<path d="M23.5225 25.1486V28.0429C23.4136 28.075 23.3046 28.1179 23.1738 28.1501C18.0641 29.5651 11.4725 29.6508 6.86394 26.7457C1.74326 23.5191 -0.130691 17.4303 3.70437 12.4135C4.67403 11.1486 5.90518 10.0766 7.07095 8.97246C9.6095 6.58196 9.63129 2.66926 7.09274 0.310919C6.99468 0.214441 6.88574 0.117962 6.77679 0.0214844H9.91456C10.8733 1.61872 11.636 3.7734 12.0609 4.82392C12.8671 6.8178 11.4508 8.70447 10.0344 10.023C8.85774 11.1164 7.68108 12.2313 6.56978 13.389C3.80243 16.2941 4.84835 22.0291 8.63984 24.3338C12.9325 26.9387 18.9466 27.0353 23.5225 25.1486Z" fill="url(#paint1_linear_471_207)"/>
<path d="M6.47152 34.9144H0.947719C0.631762 34.7858 0.381175 34.6893 0.23954 34.6464C0.152379 34.6143 0.0761126 34.5821 0.0107422 34.5392V31.5806C0.185063 31.5163 0.370278 31.5269 0.5446 31.6235C1.40532 32.0844 4.93531 34.0569 6.47152 34.9144Z" fill="url(#paint2_linear_471_207)"/>
<defs>
<linearGradient id="paint0_linear_471_207" x1="0.00941334" y1="17.0705" x2="23.524" y2="17.0705" gradientUnits="userSpaceOnUse">
<stop offset="0.0111732" stop-color="#1CB69A"/>
<stop offset="0.5" stop-color="#58DF78"/>
<stop offset="1" stop-color="#E5D645"/>
</linearGradient>
<linearGradient id="paint1_linear_471_207" x1="20.0022" y1="8.34761" x2="5.58012" y2="25.8163" gradientUnits="userSpaceOnUse">
<stop offset="0.0111732" stop-color="#1CB69A"/>
<stop offset="0.5" stop-color="#58DF78"/>
<stop offset="1" stop-color="#E5D645"/>
</linearGradient>
<linearGradient id="paint2_linear_471_207" x1="3.74391" y1="32.6572" x2="1.31077" y2="35.6043" gradientUnits="userSpaceOnUse">
<stop offset="0.0111732" stop-color="#1CB69A"/>
<stop offset="0.5" stop-color="#58DF78"/>
<stop offset="1" stop-color="#E5D645"/>
</linearGradient>
</defs>
</svg>
